<svg xmlns="http://www.w3.org/2000/svg" width="239" height="195" fill="none"><path d="M22 31a1 1 0 0 0-2 0h2zm103 76v-1 1zm18 39v-1 1zm89-11a1 1 0 0 0-1-1l1 1zm-106-27c8-5 13-10 17-15s6-11 6-15l-1-5-4-3c-4 0-9 1-15 5l1 2c6-4 11-5 13-5s3 1 3 2l1 4c0 4-2 9-5 14-4 4-9 10-17 14l1 2zm3-33c-12 9-15 24-11 37 3 14 13 27 24 35l1-2c-11-7-20-20-23-33-4-13-1-27 10-35l-1-2zm13 72c14 9 31 10 47 7 15-4 31-11 43-19l-1-1c-12 7-27 15-43 18s-31 2-45-7l-1 2zM20 31c-1 20 11 48 31 66 9 9 21 16 34 18 13 3 27 1 41-7l-1-2c-14 8-27 10-40 7-12-2-24-9-33-18a89 89 0 0 1-30-64h-2z" fill="#FF983B"/><path fill-rule="evenodd" clip-rule="evenodd" d="M236 131v2l-3 4a1 1 0 0 0 2 1l3-5 1-2c0-1-1-2-3-2h-9a1 1 0 1 0-1 2h10z" fill="#FF983B"/></svg>